<?xml version="1.0" encoding="UTF-8"?>
<svg width="40px" height="40px" xmlns="http://www.w3.org/2000/svg" xmlns:xlink="http://www.w3.org/1999/xlink" viewBox="0 0 3341.48 3017.4">
    <defs>
        <style>.cls-1{fill:#2fac66;}</style>
    </defs>
    <g id="Layer_2" data-name="Layer 2">
        <g id="Layer_1-2" data-name="Layer 1">
            <path class="cls-1" d="M1126,1507c163.25,118.37,231.85,184.64,262.87,251.92,38,82.36,107.33,158.25,124.52,244.29,2,10.15,8.12,44.5,41.51,58.53,20.7,8.7,48.76,8.27,69.17,0,36.86-14.94,41.77-52.64,45-81.43,5-45.26-6.71-81.32-24.22-124.69-31.8-78.8-47.71-118.2-79.55-162.86-44.9-63-94-104.81-159.1-160.32-34.58-29.47-65-52.81-86.47-68.7"/>
            <path class="cls-1" d="M920.5,1493.29c-163.25,118.37-231.85,184.64-262.87,251.92-38,82.36-107.33,158.25-124.52,244.29-2,10.15-8.12,44.5-41.5,58.53-20.71,8.7-48.77,8.27-69.18,0-36.86-14.94-41.77-52.64-45-81.43-5-45.26,6.7-81.32,24.21-124.69,31.8-78.8,47.71-118.2,79.55-162.86,44.9-63,94-104.81,159.1-160.32,34.58-29.47,65-52.81,86.47-68.7"/>
            <path class="cls-1" d="M1253.73,2257.39c-27.23-3.21-55.69-12.06-87.64-18.34-31.47-6.74-66.45-10.9-95.42-15.13-2,24.45,5,56.85,16.57,93.8,5.3,18.49,10.55,37.84,13.91,60.38,3.57,22.84,5.25,48.86,8.44,87.6,1.1,10.69,3.44,32,18.08,54.83,27.18,42.95,72.34,47.65,101.43,47.1,39.12,1.53,67.88,1.15,87.47-19.81,8.37-7.81,12.34-17.93,17.56-50.83,4.17-35.17,22.11-84.4,40.81-218.35,6.35-49.33,11.25-124.7,9.51-132.9-18.9,6.94-41.72,41.67-64.18,68.45C1297.64,2241.79,1275.37,2261.43,1253.73,2257.39Z"/>
            <path class="cls-1" d="M889.33,2261.37c-24.71-6.07-53.86-31.92-88.56-53.19-33.56-21.94-72.67-39.3-90.87-43.92-2.45,24.07,3.55,72.89,15.21,123.12,5.16,25.31,10.09,51.06,12.84,78.53,3.07,27.79,4,57.32,8.26,97.71,1.27,10.93,3.94,32.65,18.75,56,27.41,43.76,72.24,48.78,101.51,48.74,39.23,2.06,68.21,2.42,89.1-18.12,10.67-6.61,11.69-18.78,19.2-51.47,6.82-34.52,20.14-89.55,39.38-224.12,5.18-48.8,5.47-65,3.88-74.32-22.31,24.07-45.09,43.29-66.36,53.43C930.22,2264.2,910.27,2265.59,889.33,2261.37Z"/>
            <path class="cls-1" d="M1499.84,1806.2c2.61,73.38-8.14,165.44-30.34,242-22.18,77.9-55.81,140.36-98.58,184.37-85.34,86.81-207.67,106.91-343.44,106.9s-258.11-97.59-343.46-204c-42.75-52.78-76.38-105.67-98.57-155.95-22.2-51.54-33-100.46-30.34-174.41,2.61-66.1,18.29-150.66,43.9-222,25.62-72.6,61.17-132,103.9-175.86,42.75-44.3,92.68-73,147.48-94.36,54.81-21,114.48-34.63,177.09-41.07s122.28,10.25,177.09,43.71c54.79,33.15,104.73,83,147.48,135.28,42.73,52.76,78.27,108,103.9,162.72C1481.55,1669.43,1497.23,1724.78,1499.84,1806.2Z"/>
            <path class="cls-1" d="M696.12,1544.26c-14.28,28.69-40.29,53.36-64.6,65-14.46,6.78-27.85,8.52-35.48,5.44-16.08-5.55-8.28-38.36,7.26-71.85,15.57-33.94,38.88-68.57,54.28-88.19a368.89,368.89,0,0,1,68.14-69.28"/>
            <path class="cls-1" d="M1359.66,1648.51c14.27,31.66,40.29,46,64.59,34.4,14.46-6.69,27.86-22.09,35.48-36.37,16.08-31.09,8.28-55.36-7.27-79.6-15.56-23.78-38.88-47.52-54.28-66.8-24.71-29.64-49.4-56.06-68.14-75.16"/>
            <path class="cls-1" d="M1113.43,1771.56c14.38-4,30.25-14.69,42.37-9.08,6.06,3,11.18,10.86,14.71,23.34,3.52,12,5.46,28.57,5.13,37.65-.46,14.29-5.75,22.92-13.29,33.19-7.53,9.14-17.32,19.93-26.8,12.63-2.6.49-10.18-12.32-26.27-24.86-5.73-3.43-17.41-8-26.3-19.09-8.9-9.92-15-26.35-9.64-26.4,4-3,13.37-11.66,22-17.41A100.66,100.66,0,0,1,1113.43,1771.56Z"/>
            <path class="cls-1" d="M1095.84,1919.45a93.18,93.18,0,0,1,1.3-33.92,107.5,107.5,0,0,1,6.53-18.92,124.57,124.57,0,0,1,5.87-11.74"/>
            <path class="cls-1" d="M1207.38,1909.66c-14.81.68-21.12-3.37-24.14-7.17-6.25-7.85-1.58-18.54-9.78-30a32,32,0,0,0-9.13-8.47"/>
            <path class="cls-1" d="M982.64,1819c2.83-3,19.81-20.25,45.91-19.51a60.2,60.2,0,0,1,33.29,11.48"/>
            <path class="cls-1" d="M1083.65,1759.32c-1.68-.53-24.37-8.23-31-32.14-6.39-23.09,7.87-40.89,9.18-42.47"/>
            <path class="cls-1" d="M1160.81,1739.67c2.81-1.82,33.28-22.19,31.94-53.23a49.38,49.38,0,0,0-5.32-20"/>
            <path class="cls-1" d="M1196.74,1796.9a89.34,89.34,0,0,1,47.92-12,88.15,88.15,0,0,1,35.93,9.32"/>
            <polyline class="cls-1" points="999.74 2003.57 2076.22 1929.19 2068.68 1819.97 992.2 1894.35"/>
            <rect class="cls-1" x="1430.21" y="1425.03" width="54.74" height="929.2" transform="translate(-327.08 3474) rotate(-93.95)"/>
            <path class="cls-1" d="M3341.37,1787.25a54.73,54.73,0,0,0-58-51.31l-152.21,9.28a54.74,54.74,0,0,0,6.67,109.28l152.21-9.28a54.74,54.74,0,0,0,51.3-58Z"/>
            <path class="cls-1" d="M3093.53,1763.58a54.58,54.58,0,0,0-13.65,39.6l261.49-15.93a54.74,54.74,0,0,0-58-51.31l-152.21,9.28a54.58,54.58,0,0,0-37.66,18.36Z"/>
            <path class="cls-1" d="M314.75,1985.55a169,169,0,0,1,117-57L1002,1893.75a54.74,54.74,0,0,1,6.66,109.28l-570.24,34.75a60.62,60.62,0,0,0,7.38,121,54.74,54.74,0,0,1,6.66,109.28,170.11,170.11,0,0,1-137.72-282.53Z"/>
            <path class="cls-1" d="M314.75,1985.55c-1.51,1.71-2.95,3.45-4.38,5.2L1060,1945.06a54.73,54.73,0,0,0-58-51.31l-570.25,34.76a169,169,0,0,0-117,57Z"/>
            <path class="cls-1" d="M2694.74,1845.42h0Z"/>
            <path class="cls-1" d="M3141.67,1800.25a54.74,54.74,0,0,0-39.14-49.17l-1613-476.19a54.74,54.74,0,0,0-41.35,100.75,145.57,145.57,0,0,1,77.15,120.2c4.91,80.55-56.62,150.08-137.17,155a54.74,54.74,0,1,0,6.66,109.27,146.35,146.35,0,0,1,17.81,292.16,54.74,54.74,0,1,0,6.66,109.28c80.54-4.91,150.07,56.63,155,137.17a145.6,145.6,0,0,1-62,128.68,54.74,54.74,0,0,0,53.27,95l1543.19-668.57a54.73,54.73,0,0,0,32.88-53.56Z"/>
            <path class="cls-1" d="M1499.22,1798a145.42,145.42,0,0,1,49.08,100.69l1591.83-97a54.75,54.75,0,0,0-39.14-49.17l-1613-476.2A54.74,54.74,0,0,0,1446.68,1377a145.6,145.6,0,0,1,77.16,120.2c4.91,80.55-56.63,150.07-137.18,155a54.74,54.74,0,1,0,6.66,109.28,145.39,145.39,0,0,1,105.9,36.49Z"/>
            <path class="cls-1" d="M1050.35,3013.91c-470.69-1.24-699.34,16.87-1001.29-19C33.25,2966.3,5.89,2910.17,1.31,2853.1c-2.4-29.92-.73-63.74-.93-88.54-.4-50.71,7.79-120.13,22-204.82H1051"/>
            <path class="cls-1" d="M1051.69,3013.91c470.69-1.24,699.34,16.87,1001.29-19,15.81-28.64,43.17-84.77,47.75-141.84,2.4-29.92.73-63.74.93-88.54.4-50.71-7.78-120.13-22-204.82H1051"/>
            <rect class="cls-1" x="721.32" y="2387.04" width="293.39" height="81.8" rx="12"/>
            <rect class="cls-1" x="1082.18" y="2387.04" width="293.39" height="81.8" rx="12"/>
            <rect class="cls-1" x="368.44" y="1852.75" width="225.79" height="81.8" rx="12" transform="translate(437.62 -59.73) rotate(12.98)"/>
            <path class="cls-1" d="M1605.85,827.84c3.06,75.75,8,148.24-5.52,219.5-13.16,70.43-44.82,139.61-106.5,189.65-59.1,51.35-145.43,79.37-233,90.35-88.63,11.51-178.46,6-270.09,2.35-91.93-5.68-185.19-11.18-274.3-31.39-88.42-19.71-172.68-54.13-230.55-106-60.07-50.45-90.78-115.77-103.87-178.9-13.4-63.94-9.18-125.69-6.3-187.65,5-60.53,10.37-120.79,33.73-183.05a419.37,419.37,0,0,1,126.17-177c61-52.17,141.81-89.45,220.85-110.16,79.93-21.45,158-26.32,234.25-30.87,76.91-2.83,151.32-6.64,228,2.08,75.82,8.74,154,30,217.65,77.66,64.43,44.93,109.31,116,133.71,191C1595.47,671.14,1600.3,750.92,1605.85,827.84Z"/>
            <path class="cls-1" d="M776.77,1210.48a321.1,321.1,0,0,0,77.81,21.22c83.2,11.66,103-19.79,183.92-14.15,70.58,4.93,86.89,31.07,148.55,21.23a219.1,219.1,0,0,0,73.09-25.94"/>
            <rect class="cls-1" x="948.86" y="266" width="738.41" height="203.08" rx="101.54" transform="translate(156.23 -355.31) rotate(16.31)"/>
            <path class="cls-1" d="M1078.93,201.3,940.35,227.54c-54.87,10.39-108.26-26-118.65-80.88h0C811.31,91.79,847.71,38.39,902.58,28L1041.16,1.77c54.87-10.39,108.26,26,118.65,80.88h0C1170.2,137.52,1133.8,190.92,1078.93,201.3Z"/>
            <path class="cls-1" d="M819.93,105.79c4.57,15.55,51.26,14.4,94.3,13.34,25.55-.63,40.23-3.22,55.15-8.12,10.43-3.42,20.21-8.92,37.55-19.23,61.33-36.47,139-16.23,142.69-34.81,1.8-9-14.82-22.51-24-30a118.28,118.28,0,0,0-16.15-10.88A101.69,101.69,0,0,0,1091,7.44a93.08,93.08,0,0,0-24.63-4.63c-11.79-.67-19.8,1-32.63,3.35-14.25,2.62-28.6,4.61-42.86,7.2-49.39,9-50.24,9.08-56.62,10.4-22.4,4.61-31.3,5-45.1,10.23-14.48,5.48-22.17,10.8-26.06,13.76-3.12,2.36-9.23,7.31-20.48,21.59C826.42,89.94,818.3,100.25,819.93,105.79Z"/>
            <path class="cls-1" d="M373.9,841.35c25,21.6,103.75-31.9,176.38-81.24,43.09-29.27,65.4-49.92,85.57-74.78C650,668,660.66,647.73,679,610.92,743.88,480.69,899.3,429.7,885.18,393.72c-6.81-17.36-50.27-22.22-74.34-24.91-17.4-1.95,76.87-40,70.31-39.63-10.9.58-131.42,26.53-148,30.65-6.32,1.57-37.18,6.41-59.48,19.07-20.94,11.88-34.31,11.43-67.1,31.26-25.28,15.28-64.21,47.31-85.79,67.48-74.77,69.88-76.18,88.28-83.6,99.29-24.29,36.06-14.37,26.91-27.34,57.41-12.35,29.06-22.48,50.45-25.9,59.81-2.73,7.49-7.73,22.73-11.26,59.61C367.53,807,365,833.65,373.9,841.35Z"/>
            <path class="cls-1" d="M737.53,646.44v1.15c-9.24,34.64-43.87,54.27-78.51,45l-12.7-3.46,3.46,12.7a64.26,64.26,0,0,1-45,78.51H603.6a64.27,64.27,0,0,1-78.51-45l-3.47-12.7-9.23,9.24c-25.4,25.4-65.82,25.4-90.06,0l-1.16-1.16a64.11,64.11,0,0,1,0-91.21l9.24-9.24-12.7-3.46c-34.64-9.24-54.26-43.88-45-78.51v-1.16c9.24-33.48,43.88-53.11,78.51-43.87l11.55,3.46L460.43,494a64.26,64.26,0,0,1,45-78.51h1.15a64.26,64.26,0,0,1,78.52,45l3.46,12.7,9.24-9.24A64.11,64.11,0,0,1,689,464l1.15,1.16c25.4,25.4,25.4,65.81,0,90.05L681,564.46l12.7,3.46C727.14,577.16,746.77,611.8,737.53,646.44Z"/>
            <circle class="cls-1" cx="555.11" cy="597.94" r="69.27"/>
            <circle class="cls-1" cx="555.11" cy="597.94" r="47.34"/>
        </g>
    </g>
</svg>